<?xml version="1.0" standalone="no"?>
<!DOCTYPE svg PUBLIC "-//W3C//DTD SVG 20010904//EN"
 "http://www.w3.org/TR/2001/REC-SVG-20010904/DTD/svg10.dtd">
<svg version="1.0" xmlns="http://www.w3.org/2000/svg"
 width="700.000000pt" height="700.000000pt" viewBox="0 0 700.000000 700.000000"
 preserveAspectRatio="xMidYMid meet">
<metadata>
Created by potrace 1.11, written by Peter Selinger 2001-2013
</metadata>
<g transform="translate(0.000000,700.000000) scale(0.100000,-0.100000)"
fill="#000000" stroke="none">
<path d="M858 6980 c-204 -43 -347 -113 -506 -249 -59 -50 -166 -179 -198
-238 -11 -21 -32 -59 -47 -85 -32 -57 -84 -223 -95 -298 -4 -30 -7 -1216 -7
-2635 l0 -2580 27 -96 c98 -357 346 -627 678 -739 171 -58 -56 -54 2750 -57
1461 -1 2597 2 2625 7 28 5 68 12 89 15 47 8 153 45 227 80 191 89 341 231
471 445 28 46 86 204 105 285 17 77 18 191 18 2670 l0 2590 -23 95 c-13 52
-28 99 -33 104 -5 6 -9 16 -9 24 0 23 -79 173 -128 242 -58 81 -161 184 -244
243 -105 75 -272 150 -383 171 -16 4 -41 10 -55 14 -14 3 -1184 8 -2600 9
-2466 2 -2579 1 -2662 -17z"/>
</g>
</svg>
